<svg width="21" height="21" viewBox="0 0 21 21" fill="none" xmlns="http://www.w3.org/2000/svg">
<g clip-path="url(#clip0_63248_3115)">
<path d="M18.7101 16.3139C18.4076 17.0126 18.0496 17.6558 17.6348 18.2471C17.0694 19.0533 16.6065 19.6113 16.2497 19.9212C15.6966 20.4298 15.104 20.6903 14.4695 20.7051C14.014 20.7051 13.4646 20.5755 12.8251 20.3125C12.1835 20.0508 11.5939 19.9212 11.0548 19.9212C10.4894 19.9212 9.88297 20.0508 9.23435 20.3125C8.58474 20.5755 8.06142 20.7125 7.66131 20.7261C7.05281 20.752 6.44629 20.4841 5.84088 19.9212C5.45447 19.5841 4.97115 19.0064 4.39216 18.1879C3.77094 17.3138 3.26022 16.3003 2.86011 15.1448C2.4316 13.8966 2.2168 12.688 2.2168 11.518C2.2168 10.1776 2.50642 9.02161 3.08652 8.05287C3.54243 7.27475 4.14896 6.66094 4.90807 6.21034C5.66718 5.75973 6.4874 5.53011 7.37071 5.51542C7.85402 5.51542 8.48783 5.66492 9.27546 5.95874C10.0609 6.25355 10.5652 6.40305 10.7863 6.40305C10.9516 6.40305 11.5118 6.22824 12.4615 5.87973C13.3597 5.55653 14.1177 5.42271 14.7386 5.47542C16.4213 5.61122 17.6854 6.27453 18.5262 7.46956C17.0213 8.38138 16.2768 9.6585 16.2917 11.2969C16.3052 12.573 16.7682 13.6349 17.678 14.4781C18.0904 14.8695 18.5508 15.1719 19.0632 15.3867C18.9521 15.7089 18.8348 16.0176 18.7101 16.3139ZM14.851 1.1279C14.851 2.12813 14.4855 3.06204 13.7572 3.92645C12.8782 4.95408 11.815 5.54789 10.6621 5.45419C10.6474 5.33419 10.6389 5.2079 10.6389 5.07519C10.6389 4.11497 11.0569 3.08734 11.7992 2.24712C12.1698 1.8217 12.6412 1.46797 13.2127 1.1858C13.7831 0.907829 14.3226 0.754107 14.83 0.727783C14.8448 0.861498 14.851 0.995235 14.851 1.1279Z" fill="black"/>
</g>
<defs>
<clipPath id="clip0_63248_3115">
<rect width="20" height="20" fill="white" transform="translate(0.549805 0.727539)"/>
</clipPath>
</defs>
</svg>
