<svg width="21" height="21" viewBox="0 0 21 21" fill="none" xmlns="http://www.w3.org/2000/svg">
<g clip-path="url(#clip0_63248_2030)">
<path d="M20.0393 10.9146C20.0393 10.0952 19.9712 9.49727 19.824 8.8772H10.249V12.5755H15.8693C15.756 13.4946 15.1441 14.8787 13.7844 15.8088L13.7653 15.9326L16.7927 18.2244L17.0025 18.2449C18.9288 16.5064 20.0393 13.9486 20.0393 10.9146Z" fill="#4285F4"/>
<path d="M10.2491 20.6587C13.0025 20.6587 15.3141 19.7728 17.0025 18.2448L13.7844 15.8087C12.9232 16.3956 11.7674 16.8053 10.2491 16.8053C7.55223 16.8053 5.26332 15.0669 4.44739 12.6641L4.3278 12.674L1.17984 15.0547L1.13867 15.1665C2.81569 18.4219 6.26041 20.6587 10.2491 20.6587Z" fill="#34A853"/>
<path d="M4.44728 12.6641C4.23199 12.044 4.10739 11.3796 4.10739 10.6931C4.10739 10.0066 4.23199 9.34221 4.43595 8.72214L4.43025 8.59007L1.24285 6.17114L1.13856 6.21962C0.447381 7.57053 0.0507812 9.08755 0.0507812 10.6931C0.0507812 12.2987 0.447381 13.8156 1.13856 15.1666L4.44728 12.6641Z" fill="#FBBC05"/>
<path d="M10.2491 4.5809C12.164 4.5809 13.4558 5.38922 14.1923 6.06471L17.0705 3.31861C15.3028 1.71304 13.0025 0.727539 10.2491 0.727539C6.26041 0.727539 2.81569 2.96426 1.13867 6.21968L4.43607 8.7222C5.26332 6.31937 7.55223 4.5809 10.2491 4.5809Z" fill="#EB4335"/>
</g>
<defs>
<clipPath id="clip0_63248_2030">
<rect width="20" height="20" fill="white" transform="translate(0.0498047 0.727539)"/>
</clipPath>
</defs>
</svg>
