<svg width="51" height="51" viewBox="0 0 51 51" fill="none" xmlns="http://www.w3.org/2000/svg">
<path d="M18.7704 29.4462L22.4512 27.9739L40.487 47.482L50.425 47.8501L47.8485 50.4266H38.2785L18.7704 29.4462Z" fill="#016650"/>
<path d="M14.7216 3.31276C9.56848 4.66238 -0.830473 12.8092 0.0529125 27.2378C0.936298 41.6664 12.9356 46.9913 18.8249 47.8501C21.7695 48.0955 28.2476 48.2182 30.6033 46.7459C23.1906 47.4613 12.3866 43.4199 8.5187 31.6547C5.4775 22.4043 7.67365 12.1466 14.7216 3.31276Z" fill="#016650"/>
<path d="M37.1198 19.74C35.245 12.6545 25.3296 10.2466 21.715 11.0424C30.5489 5.8893 39.0146 13.8124 40.487 18.9655C41.7191 23.278 41.2231 30.5505 36.8062 33.8632L41.2231 38.2801L39.0146 41.2247L32.0212 33.8632C36.6351 31.1324 39.0985 24.5786 37.1198 19.74Z" fill="#016650"/>
<path d="M32.87 40.9329C33.9524 44.0001 32.3305 47.4443 29.092 47.7466C25.2606 48.1042 21.3692 47.5349 17.7575 46.0476C12.3145 43.806 7.88895 39.6365 5.32731 34.3366C2.76566 29.0368 2.24776 22.9785 3.87268 17.3208C5.4976 11.663 9.15128 6.80284 14.1348 3.66996C19.1184 0.537075 25.082 -0.64862 30.8849 0.339671C36.6878 1.32796 41.9228 4.42087 45.5883 9.02677C49.2539 13.6327 51.0928 19.4283 50.7533 25.305C50.528 29.2044 49.3541 32.9579 47.3709 36.2556C45.6947 39.043 41.8878 39.0115 39.593 36.7065L36.6724 33.7729C39.0953 31.3606 40.5439 28.1398 40.7411 24.7265C40.9383 21.3132 39.8702 17.947 37.7412 15.2718C35.6122 12.5966 32.5716 10.8002 29.2011 10.2262C25.8307 9.65218 22.3669 10.3409 19.4724 12.1605C16.5778 13.9801 14.4557 16.803 13.5119 20.0892C12.5681 23.3753 12.8689 26.8941 14.3568 29.9723C15.8446 33.0506 18.4151 35.4723 21.5765 36.7743C24.7379 38.0762 28.2683 38.167 31.4924 37.0292L32.87 40.9329Z" fill="#00FFC6"/>
<path d="M22.4512 27.9739L32.0212 28.7101L50.425 47.8501L40.487 47.482L22.4512 27.9739Z" fill="#00FFC6"/>
<mask id="mask0_31_480" style="mask-type:alpha" maskUnits="userSpaceOnUse" x="0" y="0" width="51" height="51">
<path d="M18.7704 29.4462L22.4512 27.9739L40.487 47.482L50.425 47.8501L47.8485 50.4266H38.2785L18.7704 29.4462Z" fill="#016650"/>
<path d="M14.7216 3.31276C9.56848 4.66238 -0.830473 12.8092 0.0529125 27.2378C0.936298 41.6664 12.9356 46.9913 18.8249 47.8501C21.7695 48.0955 28.2476 48.2182 30.6033 46.7459C23.1906 47.4613 12.3866 43.4199 8.5187 31.6547C5.4775 22.4043 7.67365 12.1466 14.7216 3.31276Z" fill="#016650"/>
<path d="M37.1198 19.74C35.245 12.6545 25.3296 10.2466 21.715 11.0424C30.5489 5.8893 39.0146 13.8124 40.487 18.9655C41.7191 23.278 41.2231 30.5505 36.8062 33.8632L41.2231 38.2801L39.0146 41.2247L32.0212 33.8632C36.6351 31.1324 39.0985 24.5786 37.1198 19.74Z" fill="#016650"/>
<path d="M32.87 40.9329C33.9524 44.0001 32.3305 47.4443 29.092 47.7466C25.2606 48.1042 21.3692 47.5349 17.7575 46.0476C12.3145 43.806 7.88895 39.6365 5.32731 34.3366C2.76566 29.0368 2.24776 22.9785 3.87268 17.3208C5.4976 11.663 9.15128 6.80284 14.1348 3.66996C19.1184 0.537075 25.082 -0.64862 30.8849 0.339671C36.6878 1.32796 41.9228 4.42087 45.5883 9.02677C49.2539 13.6327 51.0928 19.4283 50.7533 25.305C50.528 29.2044 49.3541 32.9579 47.3709 36.2556C45.6947 39.043 41.8878 39.0115 39.593 36.7065L36.6724 33.7729C39.0953 31.3606 40.5439 28.1398 40.7411 24.7265C40.9383 21.3132 39.8702 17.947 37.7412 15.2718C35.6122 12.5966 32.5716 10.8002 29.2011 10.2262C25.8307 9.65218 22.3669 10.3409 19.4724 12.1605C16.5778 13.9801 14.4557 16.803 13.5119 20.0892C12.5681 23.3753 12.8689 26.8941 14.3568 29.9723C15.8446 33.0506 18.4151 35.4723 21.5765 36.7743C24.7379 38.0762 28.2683 38.167 31.4924 37.0292L32.87 40.9329Z" fill="#00FFC6"/>
<path d="M22.4512 27.9739L32.0212 28.7101L50.425 47.8501L40.487 47.482L22.4512 27.9739Z" fill="#00FFC6"/>
</mask>
<g mask="url(#mask0_31_480)">
<rect x="-53.7393" y="-11.3809" width="11.7785" height="86.1282" transform="rotate(-36.6017 -53.7393 -11.3809)" fill="white" fill-opacity="0.5"/>
</g>
</svg>
